<?xml version="1.0" standalone="no"?>
<!DOCTYPE svg PUBLIC "-//W3C//DTD SVG 1.1//EN" "http://www.w3.org/Graphics/SVG/1.1/DTD/svg11.dtd" >
<svg>
<metadata>
Created by FontForge 20110222 at Mon Mar  7 08:08:47 2011
 By www-data
Created by Steven Snape, Solid Snake's Game Shrine 2002
</metadata>
<defs>
<font id="Metal_Gear_Solid_2" horiz-adv-x="373" >
  <font-face 
    font-family="Metal Gear Solid 2"
    font-weight="400"
    font-stretch="normal"
    units-per-em="1000"
    panose-1="2 0 5 3 0 0 0 0 0 0"
    ascent="800"
    descent="-200"
    x-height="875"
    cap-height="875"
    bbox="-30 -416 6064 889"
    underline-thickness="147"
    underline-position="-206"
    unicode-range="U+0020-2122"
  />
    <missing-glyph />
    <glyph glyph-name="space" unicode=" " horiz-adv-x="214" 
 />
    <glyph glyph-name="exclam" unicode="!" horiz-adv-x="307" 
d="M78 148v-148h150v148h-150zM80 211h146l61 664h-268z" />
    <glyph glyph-name="quotedbl" unicode="&#x22;" horiz-adv-x="410" 
d="M315 415h-24c-67 121 -68 123 -75 178c0 48 39 87 87 87s87 -39 87 -87c0 -38 -37 -121 -75 -178zM119 415h-24c-52 77 -68 126 -75 178c0 48 39 87 87 87c47 0 87 -39 87 -87c0 -38 -37 -121 -75 -178z" />
    <glyph glyph-name="numbersign" unicode="#" 
d="M26 660v-653h320v653h-320zM353 0h-333v667h333v-667z" />
    <glyph glyph-name="dollar" unicode="$" horiz-adv-x="2" 
d="M22 -416h6042v359h-6042v-359z" />
    <glyph glyph-name="percent" unicode="%" 
d="M20 -1v876h190l65 -561l51 561h192v-875h-106v675l-76 -675h-136l-74 670v-671h-106zM2413 0h287v110h-160v304h160v112h-160v238h160v111h-287v-875zM877 764h111v-764h128v764h112v111h-351v-111zM4461 0h287v111h-176v764h-111v-875zM2043 718v-567
c9 -132 38 -165 153 -174c56 0 61 5 113 63v-41h63v422h-173v-94h48v-169c0 -34 -11 -47 -39 -47c-32 0 -40 9 -40 48v532c0 45 6 53 39 53c35 0 40 -10 40 -56v-142h125v198c0 95 -43 132 -158 140c-142 0 -171 -24 -171 -166zM559 0h287v110h-159v304h159v112h-159v238
h159v111h-287v-875zM2729 0h111l24 239l102 1l17 -240h128l-96 875h-190zM2952 350h-74l36 353zM1181 0h111l24 239l101 1l18 -240h128l-96 875h-191zM1403 350h-73l35 353zM20 -373h5832v343h-5832v-343zM3145 0h127v398c63 0 78 -5 80 -46v-99c2 -197 11 -253 38 -253h105
c5 0 8 1 8 3c-12 30 -24 111 -24 172v185c0 67 -6 90 -96 104c88 20 96 39 96 116v114c0 178 -4 181 -204 181h-130v-875zM3272 782c62 0 71 -2 74 -34v-207c-3 -28 -10 -31 -38 -32h-36v273zM3903 889c-106 -9 -134 -24 -144 -88v-147c5 -100 11 -123 45 -168l128 -176
c30 -59 30 -59 30 -106c0 -85 -6 -107 -33 -107c-39 0 -51 22 -51 93v135h-118v-154c10 -96 15 -109 58 -145c21 -16 56 -27 104 -32c99 3 119 12 143 61c13 26 19 57 19 94v78c0 58 -9 98 -33 138l-121 160c-47 62 -48 63 -52 118v83c0 43 7 68 38 70c34 0 45 -17 45 -62
v-179h123v211c-9 66 -39 99 -114 118zM4273 -2c132 0 153 25 153 173v532c0 149 -22 173 -155 173s-154 -23 -154 -173v-532c0 -151 21 -173 156 -173zM4303 149c0 -27 -8 -36 -30 -36c-21 0 -32 12 -32 36v575c0 25 10 37 30 37c21 0 32 -12 32 -37v-575zM1589 0h287v111
h-175v764h-112v-875zM4786 -1h111v876h-111v-876zM4949 876c296 0 304 0 304 -309v-307c0 -215 -14 -260 -138 -260h-166v876zM5071 764v-652c61 0 67 17 67 144v385c0 112 -4 123 -67 123zM5677 496l-170 -378v-118h343v118h-181l155 343c13 29 21 57 24 84l2 146
c0 147 -34 184 -174 184s-171 -34 -171 -184v-110h147v130c0 25 8 38 23 38c18 0 24 -10 24 -38v-123c0 -20 -12 -69 -22 -92z" />
    <glyph glyph-name="ampersand" unicode="&#x26;" 
d="M26 660v-653h320v653h-320zM353 0h-333v667h333v-667z" />
    <glyph glyph-name="quotesingle" unicode="'" horiz-adv-x="185" 
d="M43 620l-25 133v122h149v-122l-22 -133h-102z" />
    <glyph glyph-name="parenleft" unicode="(" 
d="M26 660v-653h320v653h-320zM353 0h-333v667h333v-667z" />
    <glyph glyph-name="parenright" unicode=")" 
d="M26 660v-653h320v653h-320zM353 0h-333v667h333v-667z" />
    <glyph glyph-name="asterisk" unicode="*" 
d="M26 660v-653h320v653h-320zM353 0h-333v667h333v-667z" />
    <glyph glyph-name="plus" unicode="+" 
d="M26 660v-653h320v653h-320zM353 0h-333v667h333v-667z" />
    <glyph glyph-name="comma" unicode="," 
d="M26 660v-653h320v653h-320zM353 0h-333v667h333v-667z" />
    <glyph glyph-name="hyphen" unicode="-" 
d="M26 660v-653h320v653h-320zM353 0h-333v667h333v-667z" />
    <glyph glyph-name="period" unicode="." horiz-adv-x="189" 
d="M20 148v-148h149v148h-149z" />
    <glyph glyph-name="slash" unicode="/" 
d="M180 -1h-160l181 876h160z" />
    <glyph glyph-name="zero" unicode="0" horiz-adv-x="360" 
d="M181 113c-16 0 -23 12 -23 36v573c0 25 7 37 21 37c15 0 23 -12 23 -37v-573c0 -28 -6 -36 -21 -36zM341 701c0 149 -23 174 -161 174s-160 -24 -160 -174v-532c0 -149 21 -172 162 -172c136 0 159 25 159 172v532z" />
    <glyph glyph-name="one" unicode="1" horiz-adv-x="248" 
d="M229 0v875h-112c-6 -65 -42 -107 -97 -113v-116h70v-646h139z" />
    <glyph glyph-name="two" unicode="2" horiz-adv-x="384" 
d="M192 496l-171 -378v-118h343v118h-180l154 343c13 29 21 57 24 84l2 146c0 147 -33 184 -173 184s-171 -34 -171 -184v-110h147v130c0 25 7 38 22 38c18 0 24 -10 24 -38v-123c0 -20 -11 -69 -21 -92z" />
    <glyph glyph-name="three" unicode="3" horiz-adv-x="360" 
d="M173 533h-49v-125h49c19 0 29 -12 29 -37v-222c0 -26 -6 -36 -21 -36c-18 0 -22 11 -22 36v205h-139v-185c0 -148 22 -172 162 -172c134 0 159 26 159 172v164c0 91 -15 119 -66 137c46 15 66 51 66 137v94c0 145 -26 174 -159 174c-140 0 -162 -24 -162 -174v-110h139
v131c0 25 7 37 21 37s22 -12 22 -37l-1 -163c-3 -19 -10 -26 -28 -26z" />
    <glyph glyph-name="four" unicode="4" horiz-adv-x="387" 
d="M145 368l43 352h10v-352h-53zM330 875h-205l-105 -507v-116h174v-252h136v252h38v116h-38v507z" />
    <glyph glyph-name="five" unicode="5" horiz-adv-x="360" 
d="M159 453v29c0 18 7 27 22 27s21 -10 21 -36v-323c0 -26 -6 -37 -21 -37c-16 0 -22 10 -22 37v218h-139v-198c0 -147 24 -173 163 -173c134 0 158 26 158 173v320c0 28 -2 51 -7 69l-14 36c-16 28 -43 43 -81 43c-30 0 -57 -11 -80 -32v156h174v114h-313v-423h139z" />
    <glyph glyph-name="six" unicode="6" horiz-adv-x="360" 
d="M202 363v-214c0 -27 -6 -36 -22 -36c-19 0 -21 14 -21 36v214c0 28 4 36 21 36c14 0 22 -12 22 -36zM183 -3c134 0 158 26 158 172v205c0 102 -35 153 -106 153c-32 0 -57 -11 -76 -32v228c0 25 5 36 21 36s22 -9 22 -36v-132h139v110c0 147 -25 174 -158 174
c-139 0 -163 -26 -163 -174v-532c0 -148 22 -172 163 -172z" />
    <glyph glyph-name="seven" unicode="7" horiz-adv-x="315" 
d="M170 0l126 761v114h-276v-114h137l-129 -761h142z" />
    <glyph glyph-name="eight" unicode="8" horiz-adv-x="360" 
d="M158 374c0 22 2 36 22 36c14 0 22 -12 22 -36v-224c0 -25 -8 -37 -22 -37c-15 0 -22 12 -22 37v224zM83 472c-48 -16 -63 -50 -63 -130v-173c0 -146 23 -172 158 -172c140 0 163 26 163 172v173c0 78 -17 113 -64 130c37 10 55 34 59 81l5 42v106c0 145 -26 174 -159 174
c-141 0 -162 -25 -162 -174l2 -146c7 -52 24 -76 61 -83zM200 555c-3 -11 -10 -16 -20 -16c-11 0 -18 5 -20 16l-2 36v131c0 27 5 37 22 37c14 0 22 -12 22 -37v-131z" />
    <glyph glyph-name="nine" unicode="9" horiz-adv-x="360" 
d="M159 508v214c0 27 5 37 22 37c15 0 21 -10 21 -37v-214c0 -28 -5 -36 -21 -36c-15 0 -22 12 -22 36zM341 701c0 149 -26 174 -162 174c-135 0 -159 -27 -159 -174v-203c0 -103 35 -154 106 -154c31 0 56 11 76 32v-227c0 -28 -6 -37 -21 -37s-22 12 -22 37v151h-139v-131
c0 -146 23 -172 158 -172c138 0 163 25 163 172v532z" />
    <glyph glyph-name="colon" unicode=":" horiz-adv-x="155" 
d="M20 230v-143h116v143h-116zM20 710v-143h116v143h-116z" />
    <glyph glyph-name="semicolon" unicode=";" horiz-adv-x="155" 
d="M20 235v-143h48c0 -56 -8 -69 -48 -72v-66c78 1 116 36 116 130v151h-116zM20 715v-143h116v143h-116z" />
    <glyph glyph-name="less" unicode="&#x3c;" 
d="M26 660v-653h320v653h-320zM353 0h-333v667h333v-667z" />
    <glyph glyph-name="equal" unicode="=" 
d="M26 660v-653h320v653h-320zM353 0h-333v667h333v-667z" />
    <glyph glyph-name="greater" unicode="&#x3e;" 
d="M26 660v-653h320v653h-320zM353 0h-333v667h333v-667z" />
    <glyph glyph-name="question" unicode="?" 
d="M26 660v-653h320v653h-320zM353 0h-333v667h333v-667z" />
    <glyph glyph-name="at" unicode="@" horiz-adv-x="1107" 
d="M674 434l-31 -131c-20 -83 -81 -138 -152 -138c-66 0 -100 40 -100 118c0 113 59 253 177 253c58 0 95 -36 106 -102zM640 189c0 -65 40 -97 120 -97c182 0 328 167 328 375c0 242 -197 409 -481 409c-187 0 -341 -65 -456 -195c-88 -118 -131 -236 -131 -353
c0 -285 217 -474 542 -474c143 0 273 44 389 131l-39 56c-105 -72 -227 -109 -355 -109c-269 0 -443 154 -443 394c0 272 206 468 490 468c231 0 389 -133 389 -328c0 -150 -103 -293 -208 -293c-35 0 -56 18 -56 48c0 4 4 28 5 29l86 338h-89l-32 -62
c-29 55 -77 82 -143 82c-153 0 -272 -141 -272 -321c0 -126 64 -194 181 -194c79 0 131 28 175 96z" />
    <glyph glyph-name="A" unicode="A" horiz-adv-x="421" 
d="M20 0h111l24 239l101 1l18 -240h127l-95 875h-191zM242 350h-74l36 353z" />
    <glyph glyph-name="B" unicode="B" horiz-adv-x="404" 
d="M146 782c73 0 87 -1 91 -34v-207c-3 -30 -14 -31 -47 -32h-44v273zM151 103v272h55c40 0 53 -2 58 -31v-207c-5 -32 -13 -34 -113 -34zM20 875v-877h195c130 3 169 13 169 119l1 179c0 132 -1 144 -69 182c23 12 36 28 38 46v162c0 159 -11 189 -116 189h-218z" />
    <glyph glyph-name="C" unicode="C" horiz-adv-x="368" 
d="M20 718v-567c9 -139 43 -174 188 -175c95 0 135 36 140 141v304h-124l-1 -263c0 -34 -10 -47 -38 -47c-33 0 -40 9 -40 48v532c0 45 6 53 38 53c36 0 40 -10 40 -56v-142h125v198c0 95 -42 132 -157 140c-142 0 -171 -24 -171 -166z" />
    <glyph glyph-name="D" unicode="D" horiz-adv-x="343" 
d="M20 876c295 0 303 0 303 -309v-307c0 -215 -14 -260 -138 -260h-165v876zM142 764v-652c60 0 66 17 66 144v385c0 112 -3 123 -66 123z" />
    <glyph glyph-name="E" unicode="E" horiz-adv-x="326" 
d="M20 0h287v110h-160v304h160v112h-160v238h160v111h-287v-875z" />
    <glyph glyph-name="F" unicode="F" horiz-adv-x="326" 
d="M20 0h127v414h160v112h-160v238h160v111h-287v-875z" />
    <glyph glyph-name="G" unicode="G" horiz-adv-x="368" 
d="M20 718v-567c8 -132 37 -165 152 -174c57 0 61 5 114 63v-41h62v422h-172v-94h47v-169c0 -34 -10 -47 -38 -47c-33 0 -40 9 -40 48v532c0 45 6 53 38 53c36 0 40 -10 40 -56v-142h125v198c0 95 -42 132 -157 140c-142 0 -171 -24 -171 -166z" />
    <glyph glyph-name="H" unicode="H" horiz-adv-x="439" 
d="M20 0h127v414l150 -1v-414h122v875h-122v-348h-150v349h-127v-875z" />
    <glyph glyph-name="I" unicode="I" horiz-adv-x="150" 
d="M20 -1h111v876h-111v-876z" />
    <glyph glyph-name="J" unicode="J" horiz-adv-x="327" 
d="M159 110c-15 0 -22 13 -22 38v216h-117v-196c0 -148 20 -173 142 -173s146 23 146 173v708h-130v-728c0 -27 -5 -38 -19 -38z" />
    <glyph glyph-name="K" unicode="K" horiz-adv-x="364" 
d="M335 875h-132l-53 -349v349h-130v-875h130v425l61 -425h134l-86 488z" />
    <glyph glyph-name="L" unicode="L" horiz-adv-x="326" 
d="M20 0h286v111h-175v764h-111v-875z" />
    <glyph glyph-name="M" unicode="M" horiz-adv-x="538" 
d="M20 -1v876h190l65 -561l51 561h192v-875h-106v675l-76 -675h-136l-74 670v-671h-106z" />
    <glyph glyph-name="N" unicode="N" horiz-adv-x="410" 
d="M20 -1v876h190l74 -671v671h106l1 -876l-191 1l-74 670v-671h-106z" />
    <glyph glyph-name="O" unicode="O" horiz-adv-x="348" 
d="M175 -2c132 0 153 25 153 173v532c0 149 -22 173 -155 173s-153 -23 -153 -173v-532c0 -151 20 -173 155 -173zM205 149c0 -27 -7 -36 -29 -36s-32 12 -32 36v575c0 25 9 37 29 37c21 0 32 -12 32 -37v-575z" />
    <glyph glyph-name="P" unicode="P" horiz-adv-x="374" 
d="M20 0h127v398h98c61 1 109 49 109 109v187c0 178 -4 181 -204 181h-130v-875zM147 782c62 0 71 -2 74 -34v-207c-3 -28 -10 -31 -38 -32h-36v273z" />
    <glyph glyph-name="Q" unicode="Q" horiz-adv-x="334" 
d="M137 153v571c0 22 4 36 33 36c24 0 33 -10 33 -36v-571c0 -27 -9 -36 -33 -36c-22 0 -33 12 -33 36zM315 703c0 143 -24 172 -147 172c-125 0 -148 -27 -148 -172v-529c0 -131 17 -161 96 -170c37 -48 80 -89 142 -101l50 93c-1 0 -10 -1 -28 -3c-27 0 -60 6 -68 12
c72 4 103 21 103 169v529z" />
    <glyph glyph-name="R" unicode="R" horiz-adv-x="397" 
d="M20 0h127v398c63 0 78 -5 80 -46v-99c2 -197 11 -253 38 -253h105c5 0 8 1 8 3c-12 30 -24 111 -24 172v185c0 67 -6 90 -96 104c88 20 96 39 96 116v114c0 178 -4 181 -204 181h-130v-875zM147 782c62 0 71 -2 74 -34v-207c-3 -28 -10 -31 -38 -32h-36v273z" />
    <glyph glyph-name="S" unicode="S" horiz-adv-x="364" 
d="M164 884c-106 -9 -134 -25 -144 -88v-148c5 -99 11 -122 44 -167l128 -177c30 -58 31 -59 31 -106c0 -85 -7 -106 -33 -106c-39 0 -51 22 -51 93v134h-118v-153c10 -96 15 -110 58 -145c21 -17 56 -27 104 -32c99 3 119 12 143 61c12 25 19 56 19 94v78
c0 58 -9 98 -33 137l-122 161c-46 62 -47 63 -51 117v83c0 43 7 68 38 70c35 0 45 -18 45 -61v-179h123v210c-10 66 -39 100 -115 118z" />
    <glyph glyph-name="T" unicode="T" horiz-adv-x="390" 
d="M20 764h111v-764h128v764h111v111h-350v-111z" />
    <glyph glyph-name="U" unicode="U" horiz-adv-x="404" 
d="M385 875v-540c0 -236 -9 -278 -88 -328c-26 -16 -56 -24 -89 -24c-103 0 -175 71 -185 181c-2 31 -3 96 -3 194v517h136v-642c0 -99 1 -100 45 -111c48 11 49 13 49 109v644h135z" />
    <glyph glyph-name="V" unicode="V" horiz-adv-x="376" 
d="M20 875h111l65 -561l51 561h110l-100 -875h-136z" />
    <glyph glyph-name="W" unicode="W" horiz-adv-x="606" 
d="M20 875h111l65 -561l44 561h120l65 -561l51 561h110l-99 -875h-137l-40 440l-53 -440h-136z" />
    <glyph glyph-name="X" unicode="X" horiz-adv-x="407" 
d="M380 875h-133l-37 -288l-38 288h-148l63 -409l-67 -466h138l38 390h4l40 -390h148l-69 466z" />
    <glyph glyph-name="Y" unicode="Y" horiz-adv-x="399" 
d="M379 875h-141l-35 -337l-39 337h-144l105 -521v-354h155v354z" />
    <glyph glyph-name="Z" unicode="Z" horiz-adv-x="319" 
d="M20 0h279v123h-126l126 634v118h-263v-118h110l-126 -634v-123z" />
    <glyph glyph-name="bracketleft" unicode="[" 
d="M26 660v-653h320v653h-320zM353 0h-333v667h333v-667z" />
    <glyph glyph-name="backslash" unicode="\" 
d="M201 -1h160l-181 876h-160z" />
    <glyph glyph-name="bracketright" unicode="]" 
d="M26 660v-653h320v653h-320zM353 0h-333v667h333v-667z" />
    <glyph glyph-name="asciicircum" unicode="^" 
d="M26 660v-653h320v653h-320zM353 0h-333v667h333v-667z" />
    <glyph glyph-name="underscore" unicode="_" horiz-adv-x="539" 
d="M520 -280h-500v147h500v-147z" />
    <glyph glyph-name="grave" unicode="`" 
d="M26 660v-653h320v653h-320zM353 0h-333v667h333v-667z" />
    <glyph glyph-name="a" unicode="a" horiz-adv-x="421" 
d="M20 0h111l24 239l101 1l18 -240h127l-95 875h-191zM242 350h-74l36 353z" />
    <glyph glyph-name="b" unicode="b" horiz-adv-x="404" 
d="M146 782c73 0 87 -1 91 -34v-207c-3 -30 -14 -31 -47 -32h-44v273zM151 103v272h55c40 0 53 -2 58 -31v-207c-5 -32 -13 -34 -113 -34zM20 875v-877h195c130 3 169 13 169 119l1 179c0 132 -1 144 -69 182c23 12 36 28 38 46v162c0 159 -11 189 -116 189h-218z" />
    <glyph glyph-name="c" unicode="c" horiz-adv-x="368" 
d="M20 718v-567c9 -139 43 -174 188 -175c95 0 135 36 140 141v304h-124l-1 -263c0 -34 -10 -47 -38 -47c-33 0 -40 9 -40 48v532c0 45 6 53 38 53c36 0 40 -10 40 -56v-142h125v198c0 95 -42 132 -157 140c-142 0 -171 -24 -171 -166z" />
    <glyph glyph-name="d" unicode="d" horiz-adv-x="343" 
d="M20 876c295 0 303 0 303 -309v-307c0 -215 -14 -260 -138 -260h-165v876zM142 764v-652c60 0 66 17 66 144v385c0 112 -3 123 -66 123z" />
    <glyph glyph-name="e" unicode="e" horiz-adv-x="326" 
d="M20 0h287v110h-160v304h160v112h-160v238h160v111h-287v-875z" />
    <glyph glyph-name="f" unicode="f" horiz-adv-x="326" 
d="M20 0h127v414h160v112h-160v238h160v111h-287v-875z" />
    <glyph glyph-name="g" unicode="g" horiz-adv-x="368" 
d="M20 718v-567c8 -132 37 -165 152 -174c57 0 61 5 114 63v-41h62v422h-172v-94h47v-169c0 -34 -10 -47 -38 -47c-33 0 -40 9 -40 48v532c0 45 6 53 38 53c36 0 40 -10 40 -56v-142h125v198c0 95 -42 132 -157 140c-142 0 -171 -24 -171 -166z" />
    <glyph glyph-name="h" unicode="h" horiz-adv-x="439" 
d="M20 0h127v414l150 -1v-414h122v875h-122v-348h-150v349h-127v-875z" />
    <glyph glyph-name="i" unicode="i" horiz-adv-x="150" 
d="M20 -1h111v876h-111v-876z" />
    <glyph glyph-name="j" unicode="j" horiz-adv-x="327" 
d="M159 110c-15 0 -22 13 -22 38v216h-117v-196c0 -148 20 -173 142 -173s146 23 146 173v708h-130v-728c0 -27 -5 -38 -19 -38z" />
    <glyph glyph-name="k" unicode="k" horiz-adv-x="364" 
d="M335 875h-132l-53 -349v349h-130v-875h130v425l61 -425h134l-86 488z" />
    <glyph glyph-name="l" unicode="l" horiz-adv-x="326" 
d="M20 0h286v111h-175v764h-111v-875z" />
    <glyph glyph-name="m" unicode="m" horiz-adv-x="538" 
d="M20 -1v876h190l65 -561l51 561h192v-875h-106v675l-76 -675h-136l-74 670v-671h-106z" />
    <glyph glyph-name="n" unicode="n" horiz-adv-x="410" 
d="M20 -1v876h190l74 -671v671h106l1 -876l-191 1l-74 670v-671h-106z" />
    <glyph glyph-name="o" unicode="o" horiz-adv-x="348" 
d="M175 -2c132 0 153 25 153 173v532c0 149 -22 173 -155 173s-153 -23 -153 -173v-532c0 -151 20 -173 155 -173zM205 149c0 -27 -7 -36 -29 -36s-32 12 -32 36v575c0 25 9 37 29 37c21 0 32 -12 32 -37v-575z" />
    <glyph glyph-name="p" unicode="p" horiz-adv-x="374" 
d="M20 0h127v398h98c61 1 109 49 109 109v187c0 178 -4 181 -204 181h-130v-875zM147 782c62 0 71 -2 74 -34v-207c-3 -28 -10 -31 -38 -32h-36v273z" />
    <glyph glyph-name="q" unicode="q" horiz-adv-x="334" 
d="M137 153v571c0 22 4 36 33 36c24 0 33 -10 33 -36v-571c0 -27 -9 -36 -33 -36c-22 0 -33 12 -33 36zM315 703c0 143 -24 172 -147 172c-125 0 -148 -27 -148 -172v-529c0 -131 17 -161 96 -170c37 -48 80 -89 142 -101l50 93c-1 0 -10 -1 -28 -3c-27 0 -60 6 -68 12
c72 4 103 21 103 169v529z" />
    <glyph glyph-name="r" unicode="r" horiz-adv-x="397" 
d="M20 0h127v398c63 0 78 -5 80 -46v-99c2 -197 11 -253 38 -253h105c5 0 8 1 8 3c-12 30 -24 111 -24 172v185c0 67 -6 90 -96 104c88 20 96 39 96 116v114c0 178 -4 181 -204 181h-130v-875zM147 782c62 0 71 -2 74 -34v-207c-3 -28 -10 -31 -38 -32h-36v273z" />
    <glyph glyph-name="s" unicode="s" horiz-adv-x="364" 
d="M164 884c-106 -9 -134 -25 -144 -88v-148c5 -99 11 -122 44 -167l128 -177c30 -58 31 -59 31 -106c0 -85 -7 -106 -33 -106c-39 0 -51 22 -51 93v134h-118v-153c10 -96 15 -110 58 -145c21 -17 56 -27 104 -32c99 3 119 12 143 61c12 25 19 56 19 94v78
c0 58 -9 98 -33 137l-122 161c-46 62 -47 63 -51 117v83c0 43 7 68 38 70c35 0 45 -18 45 -61v-179h123v210c-10 66 -39 100 -115 118z" />
    <glyph glyph-name="t" unicode="t" horiz-adv-x="390" 
d="M20 764h111v-764h128v764h111v111h-350v-111z" />
    <glyph glyph-name="u" unicode="u" horiz-adv-x="404" 
d="M385 875v-540c0 -236 -9 -278 -88 -328c-26 -16 -56 -24 -89 -24c-103 0 -175 71 -185 181c-2 31 -3 96 -3 194v517h136v-642c0 -99 1 -100 45 -111c48 11 49 13 49 109v644h135z" />
    <glyph glyph-name="v" unicode="v" horiz-adv-x="376" 
d="M20 875h111l65 -561l51 561h110l-100 -875h-136z" />
    <glyph glyph-name="w" unicode="w" horiz-adv-x="606" 
d="M20 875h111l65 -561l44 561h120l65 -561l51 561h110l-99 -875h-137l-40 440l-53 -440h-136z" />
    <glyph glyph-name="x" unicode="x" horiz-adv-x="407" 
d="M380 875h-133l-37 -288l-38 288h-148l63 -409l-67 -466h138l38 390h4l40 -390h148l-69 466z" />
    <glyph glyph-name="y" unicode="y" horiz-adv-x="399" 
d="M379 875h-141l-35 -337l-39 337h-144l105 -521v-354h155v354z" />
    <glyph glyph-name="z" unicode="z" horiz-adv-x="319" 
d="M20 0h279v123h-126l126 634v118h-263v-118h110l-126 -634v-123z" />
    <glyph glyph-name="braceleft" unicode="{" 
d="M26 660v-653h320v653h-320zM353 0h-333v667h333v-667z" />
    <glyph glyph-name="bar" unicode="|" 
d="M26 660v-653h320v653h-320zM353 0h-333v667h333v-667z" />
    <glyph glyph-name="braceright" unicode="}" 
d="M26 660v-653h320v653h-320zM353 0h-333v667h333v-667z" />
    <glyph glyph-name="asciitilde" unicode="~" 
d="M26 660v-653h320v653h-320zM353 0h-333v667h333v-667z" />
    <glyph glyph-name="Adieresis" unicode="&#xc4;" 
d="M26 660v-653h320v653h-320zM353 0h-333v667h333v-667z" />
    <glyph glyph-name="Aring" unicode="&#xc5;" 
d="M26 660v-653h320v653h-320zM353 0h-333v667h333v-667z" />
    <glyph glyph-name="Ccedilla" unicode="&#xc7;" horiz-adv-x="469" 
d="M370 -14v-36c46 -5 68 -29 68 -73c0 -51 -36 -87 -87 -87c-23 0 -45 8 -67 23l31 41c12 -7 23 -10 31 -10c18 0 30 11 30 28c0 18 -13 30 -31 30c-7 0 -17 -3 -30 -8v96c-170 24 -295 170 -295 344c0 191 154 346 345 346c27 0 55 -4 84 -11v-180c-29 9 -56 13 -79 13
c-98 0 -174 -74 -174 -169c0 -96 77 -170 176 -170c25 0 44 3 77 14v-180c-27 -7 -57 -11 -79 -11z" />
    <glyph glyph-name="Eacute" unicode="&#xc9;" horiz-adv-x="466" 
d="M-8 0h287v110h-159v304h159v112h-159v238h159v111h-287v-875zM319 732h-116l76 130h167z" />
    <glyph glyph-name="Ntilde" unicode="&#xd1;" horiz-adv-x="556" 
d="M-30 -1v876h190l74 -671v671h106l1 -876l-191 1l-74 670v-671h-106zM386 861l58 -76c-38 -37 -64 -49 -108 -49c-22 0 -32 2 -80 16c-13 4 -24 5 -33 5c-15 0 -33 -7 -54 -23l-57 75c29 33 64 49 104 49c19 0 37 -2 54 -7l35 -10c10 -3 20 -5 28 -5c19 0 33 7 53 25z" />
    <glyph glyph-name="Odieresis" unicode="&#xd6;" horiz-adv-x="732" 
d="M164 -2c131 0 152 25 152 173v532c0 149 -21 173 -154 173c-134 0 -154 -23 -154 -173v-532c0 -151 20 -173 156 -173zM193 149c0 -27 -7 -36 -29 -36c-21 0 -32 12 -32 36v575c0 25 10 37 29 37c22 0 32 -12 32 -37v-575zM405 797c0 38 30 67 67 67s67 -29 67 -67
c0 -37 -30 -66 -67 -66s-67 30 -67 66zM194 797c0 38 29 67 66 67c38 0 67 -29 67 -67c0 -37 -29 -66 -67 -66c-37 0 -66 30 -66 66z" />
    <glyph glyph-name="Udieresis" unicode="&#xdc;" horiz-adv-x="556" 
d="M373 875v-540c0 -236 -9 -278 -88 -328c-26 -16 -56 -24 -89 -24c-103 0 -175 71 -184 181c-3 31 -4 96 -4 194v517h137v-642c0 -99 0 -100 44 -111c48 11 49 13 49 109v644h135zM317 797c0 38 30 67 67 67s67 -29 67 -67c0 -37 -30 -66 -67 -66s-67 30 -67 66zM106 797
c0 38 29 67 66 67c38 0 67 -29 67 -67c0 -37 -29 -66 -67 -66c-36 0 -66 30 -66 66z" />
    <glyph glyph-name="aacute" unicode="&#xe1;" horiz-adv-x="539" 
d="M0 0h111l24 239l102 1l17 -240h128l-96 875h-190zM223 350h-74l36 353zM319 544h-116l76 130h167z" />
    <glyph glyph-name="agrave" unicode="&#xe0;" horiz-adv-x="539" 
d="M0 0h111l24 239l102 1l17 -240h128l-96 875h-190zM223 350h-74l36 353zM56 660v-653h320v653h-320zM383 0h-334v667h334v-667z" />
    <glyph glyph-name="acircumflex" unicode="&#xe2;" horiz-adv-x="539" 
d="M0 0h111l24 239l102 1l17 -240h128l-96 875h-190zM223 350h-74l36 353zM250 544h-134l93 130h134l93 -130h-133l-27 53z" />
    <glyph glyph-name="adieresis" unicode="&#xe4;" horiz-adv-x="539" 
d="M0 0h111l24 239l102 1l17 -240h128l-96 875h-190zM223 350h-74l36 353zM314 609c0 38 30 67 67 67s67 -29 67 -67c0 -37 -30 -66 -67 -66s-67 30 -67 66zM103 609c0 38 29 67 66 67c38 0 67 -29 67 -67c0 -37 -29 -66 -67 -66c-36 0 -66 30 -66 66z" />
    <glyph glyph-name="atilde" unicode="&#xe3;" horiz-adv-x="539" 
d="M0 0h111l24 239l102 1l17 -240h128l-96 875h-190zM223 350h-74l36 353zM387 673l58 -76c-38 -37 -64 -49 -108 -49c-22 0 -32 2 -80 16c-13 4 -24 5 -33 5c-16 0 -33 -7 -54 -23l-57 75c29 33 64 49 104 49c19 0 37 -2 54 -7l35 -10c10 -3 20 -5 28 -5c19 0 33 7 53 25z
" />
    <glyph glyph-name="aring" unicode="&#xe5;" horiz-adv-x="539" 
d="M0 0h111l24 239l102 1l17 -240h128l-96 875h-190zM223 350h-74l36 353zM242 609c0 -15 12 -26 27 -26s26 11 26 26c0 16 -11 27 -26 27c-14 0 -27 -11 -27 -27zM189 609c0 44 35 78 80 78s79 -34 79 -78c0 -43 -35 -77 -79 -77s-80 35 -80 77z" />
    <glyph glyph-name="ccedilla" unicode="&#xe7;" horiz-adv-x="432" 
d="M195 -187l32 41c12 -7 22 -10 31 -10c18 0 30 11 30 28c0 18 -14 30 -32 30c-6 0 -16 -3 -29 -8v101c-121 23 -207 127 -207 248c0 140 110 249 252 249c53 0 95 -13 140 -44l-80 -143c-22 19 -36 25 -62 25c-50 0 -88 -38 -88 -88c0 -49 39 -88 89 -88c23 0 42 8 61 26
l80 -143c-42 -29 -83 -43 -130 -45v-42c45 -5 68 -29 68 -73c0 -51 -37 -87 -87 -87c-23 0 -46 8 -68 23z" />
    <glyph glyph-name="eacute" unicode="&#xe9;" horiz-adv-x="505" 
d="M-1 0h287v110h-160v304h160v112h-160v238h160v111h-287v-875zM322 544h-116l76 130h167z" />
    <glyph glyph-name="egrave" unicode="&#xe8;" horiz-adv-x="505" 
d="M-1 0h287v110h-160v304h160v112h-160v238h160v111h-287v-875zM53 660v-653h320v653h-320zM380 0h-334v667h334v-667z" />
    <glyph glyph-name="ecircumflex" unicode="&#xea;" horiz-adv-x="505" 
d="M-1 0h287v110h-160v304h160v112h-160v238h160v111h-287v-875zM229 544h-133l93 130h134l93 -130h-133l-27 53z" />
    <glyph glyph-name="edieresis" unicode="&#xeb;" horiz-adv-x="505" 
d="M-1 0h287v110h-160v304h160v112h-160v238h160v111h-287v-875zM301 609c0 38 30 67 67 67s67 -29 67 -67c0 -37 -30 -66 -67 -66s-67 30 -67 66zM90 609c0 38 29 67 66 67c38 0 67 -29 67 -67c0 -37 -29 -66 -67 -66c-37 0 -66 30 -66 66z" />
    <glyph glyph-name="iacute" unicode="&#xed;" horiz-adv-x="299" 
d="M183 0h-163v484h163v-484zM153 544h-116l76 130h167z" />
    <glyph glyph-name="igrave" unicode="&#xec;" horiz-adv-x="299" 
d="M279 0h-163v484h163v-484zM-7 660v-653h320v653h-320zM319 0h-333v667h333v-667z" />
    <glyph glyph-name="icircumflex" unicode="&#xee;" horiz-adv-x="359" 
d="M261 0h-163v484h163v-484zM153 544h-133l93 130h133l93 -130h-133l-27 53z" />
    <glyph glyph-name="idieresis" unicode="&#xef;" horiz-adv-x="384" 
d="M273 0h-163v484h163v-484zM231 609c0 38 29 67 66 67c38 0 67 -29 67 -67c0 -37 -29 -66 -67 -66c-36 0 -66 30 -66 66zM20 609c0 38 29 67 66 67c38 0 67 -29 67 -67c0 -37 -30 -66 -67 -66s-66 30 -66 66z" />
    <glyph glyph-name="ntilde" unicode="&#xf1;" horiz-adv-x="479" 
d="M-27 -1v876h190l74 -671v671h106l1 -876l-191 1l-74 670v-671h-106zM343 673l58 -76c-38 -37 -64 -49 -108 -49c-22 0 -31 2 -80 16c-13 4 -24 5 -33 5c-15 0 -33 -7 -54 -23l-57 75c29 33 64 49 104 49c19 0 37 -2 54 -7l35 -10c10 -3 20 -5 29 -5c18 0 32 7 52 25z" />
    <glyph glyph-name="oacute" unicode="&#xf3;" horiz-adv-x="541" 
d="M167 -2c132 0 153 25 153 173v532c0 149 -22 173 -155 173s-154 -23 -154 -173v-532c0 -151 21 -173 156 -173zM197 149c0 -27 -8 -36 -30 -36c-21 0 -32 12 -32 36v575c0 25 10 37 30 37c21 0 32 -12 32 -37v-575zM327 544h-116l76 130h167z" />
    <glyph glyph-name="ograve" unicode="&#xf2;" horiz-adv-x="541" 
d="M167 -2c132 0 153 25 153 173v532c0 149 -22 173 -155 173s-154 -23 -154 -173v-532c0 -151 21 -173 156 -173zM197 149c0 -27 -8 -36 -30 -36c-21 0 -32 12 -32 36v575c0 25 10 37 30 37c21 0 32 -12 32 -37v-575zM49 660v-653h320v653h-320zM376 0h-334v667h334v-667z
" />
    <glyph glyph-name="ocircumflex" unicode="&#xf4;" horiz-adv-x="541" 
d="M167 -2c132 0 153 25 153 173v532c0 149 -22 173 -155 173s-154 -23 -154 -173v-532c0 -151 21 -173 156 -173zM197 149c0 -27 -8 -36 -30 -36c-21 0 -32 12 -32 36v575c0 25 10 37 30 37c21 0 32 -12 32 -37v-575zM244 544h-133l93 130h133l94 -130h-134l-26 53z" />
    <glyph glyph-name="odieresis" unicode="&#xf6;" horiz-adv-x="541" 
d="M167 -2c132 0 153 25 153 173v532c0 149 -22 173 -155 173s-154 -23 -154 -173v-532c0 -151 21 -173 156 -173zM197 149c0 -27 -8 -36 -30 -36c-21 0 -32 12 -32 36v575c0 25 10 37 30 37c21 0 32 -12 32 -37v-575zM310 609c0 38 29 67 66 67c38 0 67 -29 67 -67
c0 -37 -30 -66 -67 -66s-66 30 -66 66zM98 609c0 38 29 67 67 67c37 0 66 -29 66 -67c0 -37 -29 -66 -66 -66s-67 30 -67 66z" />
    <glyph glyph-name="otilde" unicode="&#xf5;" horiz-adv-x="541" 
d="M167 -2c132 0 153 25 153 173v532c0 149 -22 173 -155 173s-154 -23 -154 -173v-532c0 -151 21 -173 156 -173zM197 149c0 -27 -8 -36 -30 -36c-21 0 -32 12 -32 36v575c0 25 10 37 30 37c21 0 32 -12 32 -37v-575zM378 673l59 -76c-39 -37 -65 -49 -109 -49
c-21 0 -31 2 -79 16c-14 4 -25 5 -34 5c-15 0 -33 -7 -53 -23l-58 75c29 33 64 49 104 49c19 0 37 -2 54 -7l35 -10c10 -3 20 -5 29 -5c19 0 32 7 52 25z" />
    <glyph glyph-name="uacute" unicode="&#xfa;" horiz-adv-x="479" 
d="M376 875v-540c0 -236 -9 -278 -88 -328c-26 -16 -56 -24 -89 -24c-103 0 -175 71 -184 181c-3 31 -4 96 -4 194v517h136v-642c0 -99 1 -100 45 -111c48 11 49 13 49 109v644h135zM298 544h-116l76 130h167z" />
    <glyph glyph-name="ugrave" unicode="&#xf9;" horiz-adv-x="479" 
d="M376 875v-540c0 -236 -9 -278 -88 -328c-26 -16 -56 -24 -89 -24c-103 0 -175 71 -184 181c-3 31 -4 96 -4 194v517h136v-642c0 -99 1 -100 45 -111c48 11 49 13 49 109v644h135zM25 660v-653h320v653h-320zM352 0h-334v667h334v-667z" />
    <glyph glyph-name="ucircumflex" unicode="&#xfb;" horiz-adv-x="479" 
d="M376 875v-540c0 -236 -9 -278 -88 -328c-26 -16 -56 -24 -89 -24c-103 0 -175 71 -184 181c-3 31 -4 96 -4 194v517h136v-642c0 -99 1 -100 45 -111c48 11 49 13 49 109v644h135zM209 544h-133l93 130h133l94 -130h-134l-27 53z" />
    <glyph glyph-name="udieresis" unicode="&#xfc;" horiz-adv-x="479" 
d="M376 875v-540c0 -236 -9 -278 -88 -328c-26 -16 -56 -24 -89 -24c-103 0 -175 71 -184 181c-3 31 -4 96 -4 194v517h136v-642c0 -99 1 -100 45 -111c48 11 49 13 49 109v644h135zM277 609c0 38 30 67 67 67s67 -29 67 -67c0 -37 -30 -66 -67 -66s-67 30 -67 66zM66 609
c0 38 29 67 66 67c38 0 67 -29 67 -67c0 -37 -29 -66 -67 -66c-37 0 -66 30 -66 66z" />
    <glyph glyph-name="dagger" unicode="&#x2020;" 
d="M26 660v-653h320v653h-320zM353 0h-333v667h333v-667z" />
    <glyph glyph-name="degree" unicode="&#xb0;" 
d="M26 660v-653h320v653h-320zM353 0h-333v667h333v-667z" />
    <glyph glyph-name="cent" unicode="&#xa2;" horiz-adv-x="432" 
d="M317 101v-48h-111v51c-113 34 -186 129 -186 243c0 113 77 214 186 242v51h111v-47l3 -1c36 -7 59 -17 92 -39l-80 -144c-22 20 -36 26 -62 26c-50 0 -88 -39 -88 -88s39 -89 89 -89c24 0 39 7 61 27l79 -143c-30 -22 -57 -34 -94 -41z" />
    <glyph glyph-name="sterling" unicode="&#xa3;" horiz-adv-x="538" 
d="M216 163h282v-163h-478l40 253h-37v150h60l10 59c24 140 109 218 239 218c71 0 133 -27 187 -82l-124 -118c-20 20 -41 30 -62 30c-45 0 -64 -26 -78 -107h158v-150h-183z" />
    <glyph glyph-name="section" unicode="&#xa7;" 
d="M26 660v-653h320v653h-320zM353 0h-333v667h333v-667z" />
    <glyph glyph-name="bullet" unicode="&#x2022;" horiz-adv-x="347" 
d="M20 340c0 85 68 154 153 154c86 0 154 -69 154 -154s-69 -154 -154 -154c-84 0 -153 69 -153 154z" />
    <glyph glyph-name="paragraph" unicode="&#xb6;" 
d="M26 660v-653h320v653h-320zM353 0h-333v667h333v-667z" />
    <glyph glyph-name="germandbls" unicode="&#xdf;" horiz-adv-x="541" 
d="M183 386v-386h-163v382c0 140 25 210 100 257c38 24 84 37 135 37c128 0 218 -78 218 -188c0 -53 -16 -90 -58 -132c74 -34 106 -85 106 -167c0 -122 -85 -199 -220 -199c-30 0 -59 3 -89 10v160c21 -9 40 -14 59 -14c50 0 83 29 83 75c0 56 -38 78 -142 78v97
c73 0 103 13 103 58c0 35 -26 60 -65 60c-55 0 -67 -28 -67 -128z" />
    <glyph glyph-name="registered" unicode="&#xae;" 
d="M26 660v-653h320v653h-320zM353 0h-333v667h333v-667z" />
    <glyph glyph-name="copyright" unicode="&#xa9;" 
d="M26 660v-653h320v653h-320zM353 0h-333v667h333v-667z" />
    <glyph glyph-name="trademark" unicode="&#x2122;" 
d="M26 660v-653h320v653h-320zM353 0h-333v667h333v-667z" />
    <glyph glyph-name="acute" unicode="&#xb4;" horiz-adv-x="282" 
d="M136 544h-116l76 130h167z" />
    <glyph glyph-name="dieresis" unicode="&#xa8;" horiz-adv-x="384" 
d="M231 609c0 38 29 67 66 67c38 0 67 -29 67 -67c0 -37 -29 -66 -67 -66c-36 0 -66 30 -66 66zM20 609c0 38 29 67 66 67c38 0 67 -29 67 -67c0 -37 -30 -66 -67 -66s-66 30 -66 66z" />
    <glyph glyph-name="AE" unicode="&#xc6;" horiz-adv-x="771" 
d="M198 333h160v65c0 69 -25 106 -80 106c-54 0 -80 -35 -80 -106v-65zM198 182v-182h-178v373c0 119 16 180 85 242c46 42 108 65 173 65c60 0 114 -19 162 -55c38 30 77 42 135 42h176v-151h-136c-56 0 -86 -12 -86 -53c0 -39 21 -52 84 -55h138v-149h-138
c-51 0 -76 -18 -76 -54c0 -37 25 -55 78 -55h136v-150h-169c-145 0 -209 51 -224 182h-160z" />
    <glyph glyph-name="Oslash" unicode="&#xd8;" horiz-adv-x="732" 
d="M366 502c-94 0 -169 -75 -169 -169s77 -169 169 -169c94 0 169 76 169 169c0 95 -75 169 -169 169zM27 105l45 45c-33 49 -52 118 -52 183c0 190 155 347 344 347c65 0 137 -21 187 -54l44 43l108 -106l-44 -45c33 -49 53 -120 53 -185c0 -191 -155 -346 -346 -346
c-67 0 -128 18 -184 54l-46 -46z" />
    <glyph glyph-name="plusminus" unicode="&#xb1;" 
d="M26 660v-653h320v653h-320zM353 0h-333v667h333v-667z" />
    <glyph glyph-name="yen" unicode="&#xa5;" horiz-adv-x="556" 
d="M367 0h-178v104h-70v106h70v59c-127 52 -169 132 -169 295v103h177v-125c0 -74 28 -112 81 -112c54 0 80 36 80 112v125h179v-103c0 -165 -45 -243 -170 -295v-59h70v-106h-70v-104z" />
    <glyph glyph-name="ordfeminine" unicode="&#xaa;" 
d="M26 660v-653h320v653h-320zM353 0h-333v667h333v-667z" />
    <glyph glyph-name="ordmasculine" unicode="&#xba;" 
d="M26 660v-653h320v653h-320zM353 0h-333v667h333v-667z" />
    <glyph glyph-name="ae" unicode="&#xe6;" horiz-adv-x="840" 
d="M529 201l114 123c-14 7 -27 10 -39 10c-48 0 -87 -40 -87 -89c0 -15 4 -30 12 -44zM821 374l-203 -220c6 -2 13 -3 19 -3c37 0 73 13 116 41l39 -160c-54 -29 -108 -42 -164 -42c-159 0 -261 96 -274 260c-4 55 -39 80 -83 80c-51 0 -90 -38 -90 -87c0 -52 39 -90 92 -90
c19 0 38 5 60 15v-168c-22 -7 -43 -10 -64 -10c-144 0 -249 105 -249 247c0 143 109 255 250 255c62 0 121 -23 165 -63c48 42 104 63 170 63c91 0 163 -40 216 -118z" />
    <glyph glyph-name="oslash" unicode="&#xf8;" horiz-adv-x="544" 
d="M272 329c-48 0 -88 -40 -88 -88c0 -49 40 -88 88 -88c49 0 89 40 89 88c0 49 -39 88 -89 88zM150 21l-27 -27l-103 101l30 30c-19 35 -29 74 -29 117c0 138 112 250 250 250c42 0 81 -10 118 -29l34 35l102 -102l-33 -33c21 -40 31 -80 31 -122
c0 -139 -111 -251 -251 -251c-42 0 -82 11 -122 31z" />
    <glyph glyph-name="questiondown" unicode="&#xbf;" horiz-adv-x="476" 
d="M335 585c0 -62 -50 -94 -94 -94c-52 0 -95 43 -95 94c0 45 33 95 95 95c53 0 94 -42 94 -95zM165 453h153c0 -97 -14 -131 -80 -171c-52 -32 -67 -45 -67 -78c0 -37 30 -66 67 -66c36 0 65 27 65 65v20h153c0 -143 -88 -236 -220 -236c-120 0 -216 96 -216 217
c0 79 36 143 110 192c34 21 35 22 35 57z" />
    <glyph glyph-name="exclamdown" unicode="&#xa1;" horiz-adv-x="228" 
d="M20 585c0 45 32 95 94 95c53 0 94 -42 94 -95c0 -51 -42 -94 -94 -94s-94 43 -94 94zM26 0l14 453h148l14 -453h-176z" />
    <glyph glyph-name="logicalnot" unicode="&#xac;" 
d="M26 660v-653h320v653h-320zM353 0h-333v667h333v-667z" />
    <glyph glyph-name="florin" unicode="&#x192;" horiz-adv-x="564" 
d="M196 307h-47l24 153h48l8 55c22 141 107 221 236 221c24 0 50 -3 79 -11l-40 -172c-15 9 -28 14 -39 14c-40 0 -58 -32 -72 -107h50l-24 -153h-50l-33 -206c-23 -153 -110 -238 -239 -238c-24 0 -50 5 -77 14l40 173c15 -9 28 -14 39 -14c43 0 60 33 72 108z" />
    <glyph glyph-name="guillemotleft" unicode="&#xab;" horiz-adv-x="399" 
d="M213 65h-117l-76 185l76 179h117l-77 -179zM303 250l76 -185h-116l-77 185l77 179h116z" />
    <glyph glyph-name="guillemotright" unicode="&#xbb;" horiz-adv-x="399" 
d="M379 250l-76 -185h-117l77 185l-77 179h117zM213 250l-77 -185h-116l76 185l-76 179h116z" />
    <glyph glyph-name="ellipsis" unicode="&#x2026;" horiz-adv-x="911" 
d="M686 89c0 58 45 103 103 103c57 0 102 -45 102 -103c0 -57 -45 -102 -102 -102s-103 46 -103 102zM353 89c0 58 45 103 103 103c57 0 102 -45 102 -103c0 -57 -45 -102 -102 -102s-103 46 -103 102zM20 89c0 58 45 103 102 103c58 0 103 -45 103 -103
c0 -57 -46 -102 -103 -102c-56 0 -102 46 -102 102z" />
    <glyph glyph-name="nonbreakingspace" unicode="&#xa0;" horiz-adv-x="39" 
 />
    <glyph glyph-name="Agrave" unicode="&#xc0;" horiz-adv-x="556" 
d="M-26 0h111l24 239l101 1l18 -240h127l-95 875h-191zM196 350h-73l35 353zM63 849v-653h320v653h-320zM390 189h-334v667h334v-667z" />
    <glyph glyph-name="Atilde" unicode="&#xc3;" horiz-adv-x="556" 
d="M-26 0h111l24 239l101 1l18 -240h127l-95 875h-191zM196 350h-73l35 353zM386 861l58 -76c-38 -37 -64 -49 -108 -49c-22 0 -32 2 -80 16c-13 4 -24 5 -33 5c-15 0 -33 -7 -54 -23l-57 75c29 33 64 49 104 49c19 0 37 -2 54 -7l35 -10c10 -3 20 -5 28 -5c19 0 33 7 53 25
z" />
    <glyph glyph-name="Otilde" unicode="&#xd5;" horiz-adv-x="732" 
d="M164 -2c131 0 152 25 152 173v532c0 149 -21 173 -154 173c-134 0 -154 -23 -154 -173v-532c0 -151 20 -173 156 -173zM193 149c0 -27 -7 -36 -29 -36c-21 0 -32 12 -32 36v575c0 25 10 37 29 37c22 0 32 -12 32 -37v-575zM474 861l58 -76c-39 -37 -64 -49 -108 -49
c-22 0 -32 2 -80 16c-13 4 -25 5 -33 5c-16 0 -33 -7 -54 -23l-57 75c29 33 64 49 104 49c19 0 36 -2 53 -7l36 -10c10 -3 20 -5 28 -5c19 0 32 7 53 25z" />
    <glyph glyph-name="OE" unicode="&#x152;" horiz-adv-x="936" 
d="M197 333c0 -94 77 -169 169 -169c94 0 169 76 169 169c0 95 -75 169 -169 169s-169 -75 -169 -169zM706 667h210v-151h-136c-60 0 -86 -14 -86 -53s21 -52 84 -55h138v-149h-138c-51 0 -76 -18 -76 -54c0 -37 25 -55 78 -55h136v-150h-210c-76 0 -117 12 -152 42
c-57 -37 -119 -55 -188 -55c-192 0 -346 153 -346 344c0 193 156 349 349 349c72 0 138 -21 194 -62c35 33 80 49 143 49z" />
    <glyph glyph-name="oe" unicode="&#x153;" horiz-adv-x="847" 
d="M535 199l114 124c-13 6 -25 9 -38 9c-48 0 -88 -40 -88 -89c0 -14 4 -28 12 -44zM182 241c0 -49 40 -88 89 -88c48 0 88 39 88 88s-39 88 -88 88s-89 -40 -89 -88zM760 190l39 -159c-50 -28 -104 -41 -161 -41c-78 0 -142 22 -195 69c-51 -46 -107 -69 -168 -69
c-136 0 -255 116 -255 250c0 133 120 252 254 252c61 0 116 -22 166 -66c50 46 101 66 174 66c91 0 162 -40 213 -120l-203 -220c6 -1 13 -2 21 -2c35 0 73 13 115 40z" />
    <glyph glyph-name="endash" unicode="&#x2013;" horiz-adv-x="421" 
d="M401 185h-381v147h381v-147z" />
    <glyph glyph-name="emdash" unicode="&#x2014;" horiz-adv-x="1039" 
d="M1020 185h-1000v147h1000v-147z" />
    <glyph glyph-name="quotedblleft" unicode="&#x201c;" horiz-adv-x="410" 
d="M297 667h85c-12 -19 -27 -48 -45 -86l-4 -9c38 -18 57 -45 57 -83c0 -48 -39 -88 -87 -88s-87 39 -87 86c0 39 21 87 81 180zM101 667h85c-15 -24 -28 -48 -50 -95c39 -18 58 -45 58 -83c0 -49 -39 -88 -88 -88c-47 0 -86 39 -86 86c0 40 23 92 81 180z" />
    <glyph glyph-name="quotedblright" unicode="&#x201d;" horiz-adv-x="410" 
d="M309 415h-85c15 24 27 47 49 94c-38 18 -57 46 -57 84c0 48 39 87 88 87c48 0 86 -39 86 -86c0 -40 -26 -98 -81 -179zM112 415h-84c15 25 30 53 45 86l4 8c-38 18 -57 46 -57 84c0 48 39 87 87 87c49 0 87 -39 87 -86c0 -41 -22 -88 -82 -179z" />
    <glyph glyph-name="quoteleft" unicode="&#x2018;" horiz-adv-x="213" 
d="M101 667h85c-15 -24 -28 -48 -50 -95c39 -18 58 -45 58 -83c0 -49 -39 -88 -88 -88c-47 0 -86 39 -86 86c0 40 23 92 81 180z" />
    <glyph glyph-name="quoteright" unicode="&#x2019;" horiz-adv-x="213" 
d="M112 415h-84c15 25 30 53 45 86l4 8c-38 18 -57 46 -57 84c0 48 39 87 87 87c49 0 87 -39 87 -86c0 -41 -22 -88 -82 -179z" />
    <glyph glyph-name="divide" unicode="&#xf7;" 
d="M26 660v-653h320v653h-320zM353 0h-333v667h333v-667z" />
    <glyph glyph-name="ydieresis" unicode="&#xff;" horiz-adv-x="479" 
d="M332 875h-142l-35 -337l-39 337h-144l105 -521v-354h155v354zM276 609c0 38 30 67 67 67s67 -29 67 -67c0 -37 -30 -66 -67 -66s-67 30 -67 66zM65 609c0 38 29 67 66 67c38 0 67 -29 67 -67c0 -37 -29 -66 -67 -66c-36 0 -66 30 -66 66z" />
    <glyph glyph-name="Ydieresis" unicode="&#x178;" horiz-adv-x="556" 
d="M345 875h-141l-36 -337l-38 337h-145l106 -521v-354h155v354zM318 797c0 38 29 67 66 67c38 0 67 -29 67 -67c0 -37 -29 -66 -67 -66c-37 0 -66 30 -66 66zM106 797c0 38 30 67 67 67s67 -29 67 -67c0 -37 -30 -66 -67 -66s-67 30 -67 66z" />
    <glyph glyph-name="currency" unicode="&#xa4;" 
d="M26 660v-653h320v653h-320zM353 0h-333v667h333v-667z" />
    <glyph glyph-name="guilsinglleft" unicode="&#x2039;" horiz-adv-x="232" 
d="M213 65h-117l-76 185l76 179h117l-77 -179z" />
    <glyph glyph-name="guilsinglright" unicode="&#x203a;" horiz-adv-x="232" 
d="M213 250l-77 -185h-116l76 185l-76 179h116z" />
    <glyph glyph-name="daggerdbl" unicode="&#x2021;" 
d="M26 660v-653h320v653h-320zM353 0h-333v667h333v-667z" />
    <glyph glyph-name="periodcentered" unicode="&#xb7;" horiz-adv-x="244" 
d="M20 340c0 58 44 102 102 102c57 0 102 -44 102 -102c0 -57 -45 -103 -102 -103c-56 0 -102 47 -102 103z" />
    <glyph glyph-name="quotesinglbase" unicode="&#x201a;" 
d="M26 660v-653h320v653h-320zM353 0h-333v667h333v-667z" />
    <glyph glyph-name="quotedblbase" unicode="&#x201e;" horiz-adv-x="410" 
d="M309 -97h-85c15 24 27 47 49 95c-38 17 -57 45 -57 84c0 48 39 86 88 86c47 0 86 -38 86 -85c0 -42 -24 -93 -81 -180zM112 -97h-84c15 25 30 54 45 86l4 9c-38 17 -57 45 -57 84c0 48 39 86 87 86s87 -38 87 -85c0 -39 -24 -92 -82 -180z" />
    <glyph glyph-name="perthousand" unicode="&#x2030;" horiz-adv-x="1127" 
d="M891 152c0 -29 23 -51 51 -51c29 0 51 22 51 51c0 28 -22 51 -51 51c-28 0 -51 -23 -51 -51zM134 515c0 -27 24 -51 51 -51c28 0 51 23 51 51s-23 51 -51 51s-51 -23 -51 -51zM531 152c0 -28 23 -51 51 -51s51 22 51 51c0 28 -23 51 -51 51c-29 0 -51 -23 -51 -51z
M777 152c0 91 74 164 165 164c92 0 165 -73 165 -164s-74 -165 -165 -165s-165 74 -165 165zM20 515c0 90 73 165 165 165s165 -73 165 -165s-76 -165 -165 -165c-91 0 -165 74 -165 165zM417 152c0 91 74 164 165 164c92 0 165 -73 165 -164s-75 -165 -165 -165
c-91 0 -165 74 -165 165zM251 0h-160l422 667h160z" />
    <glyph glyph-name="Acircumflex" unicode="&#xc2;" horiz-adv-x="556" 
d="M-26 0h111l24 239l101 1l18 -240h127l-95 875h-191zM196 350h-73l35 353zM251 732h-133l93 130h134l93 -130h-133l-27 53z" />
    <glyph glyph-name="Ecircumflex" unicode="&#xca;" horiz-adv-x="465" 
d="M-8 0h287v110h-159v304h159v112h-159v238h159v111h-287v-875zM230 732h-133l93 130h133l94 -130h-134l-27 53z" />
    <glyph glyph-name="Aacute" unicode="&#xc1;" horiz-adv-x="556" 
d="M-26 0h111l24 239l101 1l18 -240h127l-95 875h-191zM196 350h-73l35 353zM326 732h-116l76 130h167z" />
    <glyph glyph-name="Edieresis" unicode="&#xcb;" horiz-adv-x="465" 
d="M-8 0h287v110h-159v304h159v112h-159v238h159v111h-287v-875zM281 797c0 38 30 67 67 67s67 -29 67 -67c0 -37 -30 -66 -67 -66s-67 30 -67 66zM70 797c0 38 29 67 66 67c38 0 67 -29 67 -67c0 -37 -29 -66 -67 -66c-37 0 -66 30 -66 66z" />
    <glyph glyph-name="Egrave" unicode="&#xc8;" horiz-adv-x="465" 
d="M-8 0h287v110h-159v304h159v112h-159v238h159v111h-287v-875zM57 849v-653h319v653h-319zM383 189h-333v667h333v-667z" />
    <glyph glyph-name="Iacute" unicode="&#xcd;" horiz-adv-x="311" 
d="M-30 -1h111v876h-111v-876zM164 732h-116l76 130h167z" />
    <glyph glyph-name="Icircumflex" unicode="&#xce;" horiz-adv-x="359" 
d="M41 -1h111v876h-111v-876zM153 732h-133l93 130h133l93 -130h-133l-27 53z" />
    <glyph glyph-name="Idieresis" unicode="&#xcf;" horiz-adv-x="384" 
d="M53 -1h111v876h-111v-876zM231 797c0 38 29 67 66 67c38 0 67 -29 67 -67c0 -37 -29 -66 -67 -66c-36 0 -66 30 -66 66zM20 797c0 38 29 67 66 67c38 0 67 -29 67 -67c0 -37 -30 -66 -67 -66s-66 30 -66 66z" />
    <glyph glyph-name="Igrave" unicode="&#xcc;" horiz-adv-x="310" 
d="M63 -1h111v876h-111v-876zM-7 849v-653h320v653h-320zM319 189h-333v667h333v-667z" />
    <glyph glyph-name="Oacute" unicode="&#xd3;" horiz-adv-x="732" 
d="M164 -2c131 0 152 25 152 173v532c0 149 -21 173 -154 173c-134 0 -154 -23 -154 -173v-532c0 -151 20 -173 156 -173zM193 149c0 -27 -7 -36 -29 -36c-21 0 -32 12 -32 36v575c0 25 10 37 29 37c22 0 32 -12 32 -37v-575zM409 732h-116l76 130h167z" />
    <glyph glyph-name="Ocircumflex" unicode="&#xd4;" horiz-adv-x="732" 
d="M164 -2c131 0 152 25 152 173v532c0 149 -21 173 -154 173c-134 0 -154 -23 -154 -173v-532c0 -151 20 -173 156 -173zM193 149c0 -27 -7 -36 -29 -36c-21 0 -32 12 -32 36v575c0 25 10 37 29 37c22 0 32 -12 32 -37v-575zM339 732h-133l93 130h134l93 -130h-133l-27 53z
" />
    <glyph glyph-name="Ograve" unicode="&#xd2;" horiz-adv-x="732" 
d="M164 -2c131 0 152 25 152 173v532c0 149 -21 173 -154 173c-134 0 -154 -23 -154 -173v-532c0 -151 20 -173 156 -173zM193 149c0 -27 -7 -36 -29 -36c-21 0 -32 12 -32 36v575c0 25 10 37 29 37c22 0 32 -12 32 -37v-575zM146 849v-653h320v653h-320zM473 189h-334v667
h334v-667z" />
    <glyph glyph-name="Uacute" unicode="&#xda;" horiz-adv-x="556" 
d="M373 875v-540c0 -236 -9 -278 -88 -328c-26 -16 -56 -24 -89 -24c-103 0 -175 71 -184 181c-3 31 -4 96 -4 194v517h137v-642c0 -99 0 -100 44 -111c48 11 49 13 49 109v644h135zM333 732h-116l76 130h167z" />
    <glyph glyph-name="Ucircumflex" unicode="&#xdb;" horiz-adv-x="556" 
d="M373 875v-540c0 -236 -9 -278 -88 -328c-26 -16 -56 -24 -89 -24c-103 0 -175 71 -184 181c-3 31 -4 96 -4 194v517h137v-642c0 -99 0 -100 44 -111c48 11 49 13 49 109v644h135zM251 732h-133l93 130h134l93 -130h-133l-27 53z" />
    <glyph glyph-name="Ugrave" unicode="&#xd9;" horiz-adv-x="556" 
d="M373 875v-540c0 -236 -9 -278 -88 -328c-26 -16 -56 -24 -89 -24c-103 0 -175 71 -184 181c-3 31 -4 96 -4 194v517h137v-642c0 -99 0 -100 44 -111c48 11 49 13 49 109v644h135zM57 849v-653h319v653h-319zM383 189h-333v667h333v-667z" />
    <glyph glyph-name="circumflex" unicode="&#x2c6;" horiz-adv-x="359" 
d="M153 544h-133l93 130h133l93 -130h-133l-27 53z" />
    <glyph glyph-name="tilde" unicode="&#x2dc;" horiz-adv-x="372" 
d="M294 673l58 -76c-39 -37 -64 -49 -108 -49c-22 0 -32 2 -80 16c-14 4 -25 5 -33 5c-16 0 -34 -7 -54 -23l-57 75c29 33 63 49 104 49c19 0 36 -2 53 -7l35 -10c11 -3 20 -5 29 -5c19 0 32 7 53 25z" />
    <glyph glyph-name="macron" unicode="&#xaf;" 
d="M26 660v-653h320v653h-320zM353 0h-333v667h333v-667z" />
    <glyph glyph-name="cedilla" unicode="&#xb8;" 
d="M26 660v-653h320v653h-320zM353 0h-333v667h333v-667z" />
  </font>
</defs>
</svg>
